<?xml version="1.0" encoding="UTF-8" standalone="no"?>
<svg
   xmlns:dc="http://purl.org/dc/elements/1.1/"
   xmlns:cc="http://creativecommons.org/ns#"
   xmlns:rdf="http://www.w3.org/1999/02/22-rdf-syntax-ns#"
   xmlns:svg="http://www.w3.org/2000/svg"
   xmlns="http://www.w3.org/2000/svg"
   xmlns:sodipodi="http://sodipodi.sourceforge.net/DTD/sodipodi-0.dtd"
   xmlns:inkscape="http://www.inkscape.org/namespaces/inkscape"
   width="120px"
   height="24px"
   viewBox="0 0 120 24"
   version="1.1"
   id="svg14"
   sodipodi:docname="Logo-brainflix.svg"
   inkscape:version="0.92.2 5c3e80d, 2017-08-06">
  <metadata
     id="metadata20">
    <rdf:RDF>
      <cc:Work
         rdf:about="">
        <dc:format>image/svg+xml</dc:format>
        <dc:type
           rdf:resource="http://purl.org/dc/dcmitype/StillImage" />
      </cc:Work>
    </rdf:RDF>
  </metadata>
  <defs
     id="defs18" />
  <sodipodi:namedview
     pagecolor="#ffffff"
     bordercolor="#666666"
     borderopacity="1"
     objecttolerance="10"
     gridtolerance="10"
     guidetolerance="10"
     inkscape:pageopacity="0"
     inkscape:pageshadow="2"
     inkscape:window-width="1000"
     inkscape:window-height="718"
     id="namedview16"
     showgrid="false"
     inkscape:zoom="3.8183766"
     inkscape:cx="54.615651"
     inkscape:cy="-10.390059"
     inkscape:window-x="0"
     inkscape:window-y="0"
     inkscape:window-maximized="0"
     inkscape:current-layer="svg14" />
  <!-- Generator: Sketch 52.5 (67469) - http://www.bohemiancoding.com/sketch -->
  <title
     id="title2">BrainFlix-Logo</title>
  <desc
     id="desc4">Created with Sketch.</desc>
  <text
     xml:space="preserve"
     style="font-style:normal;font-weight:normal;font-size:40px;line-height:1.25;font-family:sans-serif;letter-spacing:0px;word-spacing:0px;fill:#000000;fill-opacity:1;stroke:none"
     x="27.037037"
     y="19.555555"
     id="text3713"><tspan
       sodipodi:role="line"
       id="tspan3711"
       x="27.037037"
       y="19.555555"
       style="font-style:normal;font-variant:normal;font-weight:normal;font-stretch:normal;font-size:18.66666603px;font-family:Impact;-inkscape-font-specification:Impact">TravelTube</tspan></text>
  <g
     id="g3981"
     transform="matrix(0.05208064,0,0,0.05663132,3.7107731,0.67006358)">
    <path
       id="path3848"
       d="m 154.524,254.296 c -32,0 -54.84,-20.32 -71.48,-35.16 -10.52,-9.4 -19.6,-17.48 -26.92,-17.52 h -8.4 l 0.48,-8.4 c 4.052,-72.164 63.72,-128.624 136,-128.68 2.828,0 5.628,0.08 8.4,0.24 h 2.84 l 2.08,1.92 c 22.44,20.68 22.88,43.6 1.36,68 -9.172,9.888 -19.036,19.112 -29.52,27.6 -13.88,12 -27,22.96 -31.44,32.96 -2.348,3.952 -2.424,8.856 -0.2,12.88 2.72,4.88 9.24,9.68 19.4,14.16 7.836,3.072 15.204,7.236 21.88,12.36 h 1.08 l 4.84,6.24 -2.56,9.88 h -4.76 c -6.636,2.3 -13.62,3.436 -20.64,3.36 z"
       style="fill:#ccd33d"
       inkscape:connector-curvature="0" />
    <path
       id="path3850"
       d="M 184.324,337.136 C 110.904,337.14 50.668,278.992 48.084,205.616 l -0.28,-8.52 8.52,0.24 c 9.24,0.24 18.28,8.32 29.72,18.52 17,15.16 38.12,34 68.4,34 h 2.4 c 6.956,0.128 13.868,-1.096 20.36,-3.6 1.52,-0.8 2.4,-1.64 2.6,-2.48 0.2,-0.84 0.32,-1.28 -1.32,-3.28 -1.64,-2 -7.2,-7 -23.12,-14.04 -7.524,-2.852 -14.172,-7.624 -19.28,-13.84 -4.092,-5.472 -4.804,-12.764 -1.84,-18.92 4.88,-10.96 17.68,-21.88 32.56,-34.52 10.26,-8.328 19.924,-17.364 28.92,-27.04 17.76,-20.24 20,-36 8,-52 l -12.56,-16.8 20.56,4 c 19.992,4.016 38.82,12.496 55.08,24.8 l 4.44,3.36 -10.4,34.44 11.04,11.04 16.2,-29.4 7.36,10.36 c 10.58,14.82 18.064,31.62 22,49.4 l 1.32,6.04 -5.48,2.76 c -21.28,10.8 -22,16.92 -23.36,28 -1.48,12 -3.48,28.88 -39.16,58.64 -9.848,7.536 -18.248,16.792 -24.8,27.32 -5.212,9.22 -7.012,19.984 -5.08,30.4 l 1.24,7.64 -7.36,1.68 c -9.992,2.24 -20.2,3.356 -30.44,3.32 z"
       style="fill:#73ddcd"
       inkscape:connector-curvature="0" />
    <path
       id="path3852"
       d="m 326.364,140.656 6.76,-22.36 -28.64,-26.96 -31.6,57 -17.08,-17.08 20.28,-66.76 -24.32,-22.92 c -5.152,-4.628 -6.836,-11.996 -4.2,-18.4 2.076,-4.88 5.96,-8.764 10.84,-10.84 h 0.4 c 1.864,-0.712 3.844,-1.08 5.84,-1.08 4.58,0.084 8.92,2.052 12,5.44 l 22.88,24.28 66.84,-20.2 17.08,17.08 -57,31.48 26.96,28.6 22.4,-6.76 13.88,13.88 -27.16,15.08 -4.84,2.4 -2.2,4.48 -15.4,27.52 z"
       style="fill:#ffffff"
       inkscape:connector-curvature="0" />
    <path
       id="path3854"
       d="m 216.084,324.136 c -1.716,-11.02 0.344,-22.296 5.84,-32 6.9,-11.064 15.764,-20.768 26.16,-28.64 34.32,-28.64 36,-43.68 37.6,-55.8 1.32,-10.92 3.68,-19.4 22.32,-29.64 l 10.36,-5.68 1.28,11.76 c 0.672,5.548 1.004,11.132 1,16.72 0.08,36.188 -14.324,70.9 -40,96.4 -15.168,15.144 -33.676,26.516 -54.04,33.2 l -9.08,2.96 z"
       style="fill:#ccd33d"
       inkscape:connector-curvature="0" />
    <g
       id="g3900">
      <path
         id="path3856"
         d="m 54.244,323.496 c -2.34,2.344 -2.34,6.136 0,8.48 3.948,4 8.116,7.78 12.48,11.32 2.34,2.344 6.14,2.348 8.484,0.004 2.344,-2.344 2.348,-6.14 0.004,-8.484 -0.156,-0.156 -0.32,-0.304 -0.492,-0.44 l -0.4,-0.32 c -4,-3.32 -8,-6.88 -11.68,-10.56 -2.328,-2.288 -6.064,-2.288 -8.396,0 z"
         style="fill:#2b1b19"
         inkscape:connector-curvature="0" />
      <path
         id="path3858"
         d="m 6.284,184.936 h 0.76 c 3.036,0 5.596,-2.264 5.96,-5.28 0.64,-5.2 1.52,-10.44 2.64,-15.52 1.236,-3.076 -0.252,-6.568 -3.328,-7.804 -3.076,-1.236 -6.568,0.252 -7.804,3.328 -0.252,0.624 -0.396,1.288 -0.428,1.96 -1.2,5.48 -2.12,11.04 -2.8,16.6 -0.432,3.22 1.788,6.204 5,6.716 z"
         style="fill:#2b1b19"
         inkscape:connector-curvature="0" />
      <path
         id="path3860"
         d="m 28.084,287.376 c -2.848,1.692 -3.784,5.376 -2.088,8.224 0.004,0.004 0.008,0.012 0.008,0.016 v 0 c 2.88,4.8 6,9.52 9.32,14.04 2.048,2.604 5.82,3.06 8.424,1.012 2.48,-1.948 3.028,-5.484 1.256,-8.092 -3.08,-4.24 -6,-8.64 -8.68,-13.12 -1.692,-2.848 -5.376,-3.784 -8.224,-2.088 -0.004,0 -0.012,0.004 -0.016,0.008 z"
         style="fill:#2b1b19"
         inkscape:connector-curvature="0" />
      <path
         id="path3862"
         d="m 11.244,245.816 c -3.148,0.964 -4.936,4.284 -4,7.44 1.6,5.36 3.44,10.72 5.52,16 1.248,3.124 4.796,4.648 7.92,3.4 3.124,-1.248 4.648,-4.796 3.4,-7.92 v 0 c -1.92,-4.84 -3.68,-9.84 -5.16,-14.88 -0.964,-3.148 -4.284,-4.936 -7.44,-4 z"
         style="fill:#2b1b19"
         inkscape:connector-curvature="0" />
      <path
         id="path3864"
         d="m 16.084,141.176 c 3.076,1.228 6.568,-0.272 7.796,-3.348 0,-0.004 0.004,-0.008 0.004,-0.012 v 0 c 1.884,-4.9 4.032,-9.696 6.44,-14.36 1.492,-2.96 0.3,-6.568 -2.66,-8.06 -2.96,-1.492 -6.568,-0.3 -8.06,2.66 v 0 c -2.52,5 -4.84,10.16 -6.88,15.4 -1.176,3.06 0.32,6.496 3.36,7.72 z"
         style="fill:#2b1b19"
         inkscape:connector-curvature="0" />
      <path
         id="path3866"
         d="m 7.084,229.696 h 1 c 3.288,-0.416 5.616,-3.416 5.204,-6.704 0,-0.004 0,-0.012 -0.004,-0.016 v 0 c -0.64,-5.2 -1.08,-10.48 -1.28,-15.68 -0.12,-3.312 -2.908,-5.9 -6.22,-5.78 -3.312,0.12 -5.9,2.908 -5.78,6.22 0.092,5.624 0.548,11.236 1.36,16.8 0.404,2.88 2.816,5.052 5.72,5.16 z"
         style="fill:#2b1b19"
         inkscape:connector-curvature="0" />
      <path
         id="path3868"
         d="m 150.204,31.696 h 1.16 c 5.16,-1 10.4,-1.76 15.6,-2.28 3.332,-0.112 5.948,-2.904 5.836,-6.236 -0.112,-3.332 -2.904,-5.948 -6.236,-5.836 -0.256,0.008 -0.508,0.032 -0.76,0.072 -5.56,0.56 -11.16,1.36 -16.68,2.44 -3.336,0.084 -5.972,2.856 -5.888,6.188 0.084,3.336 2.856,5.972 6.188,5.888 0.272,-0.008 0.548,-0.032 0.816,-0.076 z"
         style="fill:#2b1b19"
         inkscape:connector-curvature="0" />
      <path
         id="path3870"
         d="m 39.484,102.376 c 1.932,0.008 3.748,-0.916 4.88,-2.48 3.08,-4.24 6.36,-8.4 9.8,-12.32 2.304,-2.412 2.212,-6.236 -0.2,-8.54 -2.412,-2.304 -6.236,-2.212 -8.54,0.2 -0.104,0.108 -0.204,0.224 -0.3,0.34 -3.68,4 -7.2,8.64 -10.48,13.2 -1.944,2.684 -1.344,6.436 1.34,8.38 1.02,0.736 2.244,1.136 3.5,1.14 z"
         style="fill:#2b1b19"
         inkscape:connector-curvature="0" />
      <path
         id="path3872"
         d="m 210.124,30.416 h 0.92 c 3.312,0.244 6.196,-2.248 6.44,-5.56 0.244,-3.312 -2.248,-6.196 -5.56,-6.44 -5.52,-0.84 -11.16,-1.44 -16.76,-1.76 -3.312,-0.2 -6.16,2.328 -6.36,5.64 -0.2,3.312 2.328,6.16 5.64,6.36 5.28,0.4 10.52,0.96 15.68,1.76 z"
         style="fill:#2b1b19"
         inkscape:connector-curvature="0" />
      <path
         id="path3874"
         d="m 73.884,68.376 c 4,-3.36 8.24,-6.56 12.56,-9.52 2.668,-1.964 3.24,-5.72 1.276,-8.388 -1.876,-2.548 -5.412,-3.2 -8.076,-1.492 -4.6,3.16 -9.12,6.6 -13.44,10.16 -2.552,2.12 -2.9,5.908 -0.78,8.46 2.12,2.552 5.908,2.9 8.46,0.78 z"
         style="fill:#2b1b19"
         inkscape:connector-curvature="0" />
      <path
         id="path3876"
         d="m 107.724,45.616 c 0.888,-0.008 1.76,-0.212 2.56,-0.6 4.72,-2.24 9.6,-4.28 14.52,-6.08 3.148,-1.036 4.856,-4.428 3.82,-7.576 -0.964,-2.92 -3.976,-4.64 -6.98,-3.984 l -0.84,0.28 c -5.292,1.88 -10.472,4.056 -15.52,6.52 -3.004,1.396 -4.308,4.968 -2.908,7.972 0.988,2.124 3.124,3.48 5.468,3.468 0,0 -0.12,0 -0.12,0 z"
         style="fill:#2b1b19"
         inkscape:connector-curvature="0" />
      <path
         id="path3878"
         d="m 179.404,373.376 c -3.312,-0.088 -6.072,2.528 -6.16,5.84 -0.088,3.312 2.528,6.072 5.84,6.16 h 5 c 4,0 8,0 11.76,-0.36 3.312,-0.208 5.828,-3.068 5.62,-6.38 -0.208,-3.312 -3.068,-5.828 -6.38,-5.62 -5.216,0.396 -10.452,0.516 -15.68,0.36 z"
         style="fill:#2b1b19"
         inkscape:connector-curvature="0" />
      <path
         id="path3880"
         d="m 350.324,266.576 c 3.12,1.12 6.556,-0.504 7.672,-3.62 0.004,-0.008 0.004,-0.012 0.008,-0.02 v 0 c 1.88,-5.28 3.52,-10.68 4.92,-16 0.992,-3.16 -0.764,-6.528 -3.928,-7.524 -3.164,-0.996 -6.528,0.764 -7.524,3.928 -0.08,0.26 -0.144,0.528 -0.192,0.796 -1.28,5.08 -2.84,10.12 -4.6,15.04 -0.94,3.04 0.66,6.292 3.644,7.4 z"
         style="fill:#2b1b19"
         inkscape:connector-curvature="0" />
      <path
         id="path3882"
         d="m 360.084,177.816 h 1 c 3.268,-0.532 5.488,-3.612 4.96,-6.88 -0.92,-5.52 -2.08,-11.08 -3.48,-16.48 -0.96,-3.172 -4.308,-4.968 -7.48,-4.008 -3.008,0.908 -4.804,3.984 -4.12,7.048 1.32,5.04 2.4,10.24 3.28,15.4 0.516,2.828 2.968,4.892 5.84,4.92 z"
         style="fill:#2b1b19"
         inkscape:connector-curvature="0" />
      <path
         id="path3884"
         d="m 364.764,17.096 -63.72,19.28 -21.44,-22.76 c -5.464,-6.32 -14.36,-8.428 -22.08,-5.24 h -0.36 c -5.82,2.396 -10.444,7.02 -12.84,12.84 -0.604,1.52 -1.032,3.104 -1.28,4.72 l -2.44,-0.84 c -3.16,-1.016 -6.544,0.72 -7.56,3.88 -1.016,3.16 0.72,6.544 3.88,7.56 v 0 c 3.08,1 6.16,2.12 9.24,3.28 0.928,1.452 2.012,2.792 3.24,4 l 22.68,21.44 -6.48,21.4 v 0 c -63.38,-45.208 -151.404,-30.48 -196.616,32.9 -45.212,63.38 -30.48,151.404 32.9,196.616 63.38,45.212 151.404,30.48 196.616,-32.9 36.052,-50.54 34.792,-118.716 -3.1,-167.896 l 10.24,-18.48 23.76,22.4 -5.72,18.92 c -0.708,2.064 -0.2,4.352 1.32,5.92 0,0 11.72,11.6 12,12 2.756,1.636 6.312,0.724 7.948,-2.028 0.016,-0.032 0.036,-0.06 0.052,-0.092 v 0 l 15.64,-28.68 28.24,-15.4 c 2.928,-1.348 4.212,-4.816 2.86,-7.748 -0.284,-0.612 -0.668,-1.172 -1.14,-1.652 l -10.52,-11.16 c -1.52,-1.516 -3.748,-2.068 -5.8,-1.44 l -19.12,5.8 -22.4,-23.76 50.28,-28 c 2.928,-1.348 4.212,-4.816 2.86,-7.748 -0.284,-0.612 -0.668,-1.172 -1.14,-1.652 l -14.12,-14.12 c -1.556,-1.508 -3.82,-2.032 -5.88,-1.36 z m -271.68,92.88 c 24.136,-24.124 56.876,-37.652 91,-37.6 2.668,0 5.332,0.08 8,0.24 22.68,20.92 16,40 0.8,57.2 -8.968,9.512 -18.592,18.388 -28.8,26.56 -14.76,12.56 -28.52,24.28 -33.72,36 -6.16,13.92 -1.64,26.52 23.24,37.52 12.44,5.52 19.2,9.8 21.84,13.04 0.36,0.44 0.72,0 0.64,0 -0.276,0.02 -0.548,0.088 -0.8,0.2 -6.024,2.292 -12.436,3.396 -18.88,3.24 -30.16,1.28 -51.64,-18 -68.32,-32.92 -12,-10.68 -21.96,-19.56 -32.32,-19.64 1.692,-31.588 14.98,-61.444 37.32,-83.84 z m 220,91.12 c -0.04,55.792 -35.952,105.232 -89,122.52 -1.488,-9.376 0.248,-18.976 4.92,-27.24 6.34,-10.18 14.468,-19.124 24,-26.4 36.92,-30.8 39,-48 40.6,-61.24 1,-8.36 1.76,-14.6 18.28,-23.68 0.66,5.308 0.996,10.652 1,16 z m -7.48,-43.28 c 1.788,5.036 3.256,10.18 4.4,15.4 -25.16,12.8 -26.28,21.92 -27.8,34.36 -1.36,11.2 -3.12,25.84 -36.48,53.68 -10.684,8.176 -19.772,18.248 -26.8,29.72 -6.128,10.832 -8.252,23.48 -6,35.72 -69.388,15.86 -138.496,-27.528 -154.36,-96.92 -1.816,-7.936 -2.872,-16.024 -3.16,-24.16 6.36,0 14.6,7.56 24.72,16.56 18.32,16.36 41.76,37.24 76.68,36 8.228,0.14 16.396,-1.412 24,-4.56 3.204,-1.416 5.632,-4.164 6.64,-7.52 0.852,-3.744 -0.228,-7.664 -2.88,-10.44 -3.76,-4.6 -12,-10.04 -26.16,-16.36 -16.92,-7.48 -20.6,-14.76 -17.28,-22.2 4,-9.36 16.88,-20 30.56,-32 10.66,-8.616 20.7,-17.972 30.04,-28 16.72,-19.04 25.32,-40 8.32,-62.52 18.892,3.864 36.668,11.944 52,23.64 l -9.2,30.36 c -0.68,2.08 -0.14,4.364 1.4,5.92 0,0 14.92,14.8 15.4,15.08 2.756,1.636 6.312,0.724 7.948,-2.028 0.016,-0.032 0.036,-0.06 0.052,-0.092 v 0 l 11.64,-21.04 c 6.86,9.664 12.352,20.232 16.32,31.4 z m 14.88,-94.4 c -2.832,1.5 -3.908,5.012 -2.408,7.84 0.028,0.052 0.056,0.108 0.088,0.16 v 0 c 0.24,0.44 30.84,33 30.84,33 1.516,1.604 3.812,2.208 5.92,1.56 v 0 l 19.32,-5.84 3,3 -18,9.96 -5.16,2.56 c -1.156,0.572 -2.084,1.516 -2.64,2.68 v 0 l -2.56,5.2 -9.96,18 -2.92,-3.2 5.8,-19.16 c 0.676,-2.244 -0.068,-4.676 -1.88,-6.16 l -31.56,-29.68 c -2.264,-2.264 -5.936,-2.264 -8.2,0 v 0 c -0.4,0.44 -28.8,51.6 -28.8,51.6 l -6.2,-6.2 19.36,-63.8 c 0.692,-2.256 -0.048,-4.708 -1.88,-6.2 l -25.28,-23.4 c -2.78,-2.356 -3.704,-6.244 -2.28,-9.6 1.276,-2.908 3.604,-5.22 6.52,-6.48 h 0.2 c 3.312,-1.28 7.072,-0.316 9.36,2.4 l 24,25.36 c 1.508,1.62 3.804,2.24 5.92,1.6 v 0 l 64,-19.32 6.2,6.2 z"
         style="fill:#2b1b19"
         inkscape:connector-curvature="0" />
      <path
         id="path3886"
         d="m 343.524,281.656 c -2.868,-1.5 -6.404,-0.456 -8,2.36 -2.52,4.6 -5.28,9.12 -8.24,13.44 -1.912,2.716 -1.256,6.468 1.46,8.38 2.716,1.912 6.468,1.256 8.38,-1.46 3.12,-4.64 6.08,-9.48 8.8,-14.36 1.672,-2.852 0.724,-6.516 -2.12,-8.2 z"
         style="fill:#2b1b19"
         inkscape:connector-curvature="0" />
      <path
         id="path3888"
         d="m 368.084,217.776 c 0.52,-5.56 0.76,-11.2 0.76,-16.8 v -0.84 c -0.02,-3.3 -2.7,-5.96 -6,-5.96 v 0 c -3.312,-0.088 -6.068,2.524 -6.156,5.836 0,0.04 0,0.08 -0.004,0.124 0,0 0,0 0,0.24 v 0.68 c 0,5.24 -0.24,10.52 -0.72,15.76 -0.3,3.3 2.132,6.22 5.432,6.52 0.004,0 0.004,0 0.008,0 h 0.56 c 3.196,0.072 5.888,-2.372 6.12,-5.56 z"
         style="fill:#2b1b19"
         inkscape:connector-curvature="0" />
      <path
         id="path3890"
         d="m 136.724,366.856 c -3.124,-1.104 -6.556,0.536 -7.66,3.66 -1.104,3.124 0.536,6.556 3.66,7.66 h 0.72 c 5.36,1.52 10.88,2.84 16.4,4 h 1.12 c 3.292,0.536 6.396,-1.7 6.932,-4.992 0.536,-3.292 -1.7,-6.396 -4.992,-6.932 -0.272,-0.044 -0.544,-0.068 -0.816,-0.076 -5.188,-0.78 -10.32,-1.888 -15.364,-3.32 z"
         style="fill:#2b1b19"
         inkscape:connector-curvature="0" />
      <path
         id="path3892"
         d="m 237.644,365.016 c -4.96,1.664 -10.024,3 -15.16,4 -3.236,0.728 -5.268,3.944 -4.54,7.18 0.728,3.236 3.944,5.268 7.18,4.54 5.44,-1.24 10.92,-2.76 16.24,-4.48 3.108,-1.144 4.7,-4.596 3.556,-7.704 -1.084,-2.948 -4.256,-4.556 -7.276,-3.696 z"
         style="fill:#2b1b19"
         inkscape:connector-curvature="0" />
      <path
         id="path3894"
         d="m 96.964,349.816 c -2.748,-1.852 -6.476,-1.128 -8.328,1.62 -1.852,2.748 -1.128,6.476 1.62,8.328 0.2,0.136 0.412,0.26 0.628,0.368 4.84,2.84 9.84,5.48 14.92,8 3.004,1.412 6.588,0.124 8,-2.88 1.412,-3.004 0.124,-6.588 -2.88,-8 -4.76,-2.316 -9.44,-4.876 -13.96,-7.436 z"
         style="fill:#2b1b19"
         inkscape:connector-curvature="0" />
      <path
         id="path3896"
         d="m 309.964,318.976 c -3.56,3.868 -7.324,7.54 -11.28,11 -2.476,2.208 -2.688,6.004 -0.48,8.48 2.208,2.476 6.004,2.688 8.48,0.48 4,-3.72 8.24,-7.68 12,-11.76 2.236,-2.448 2.064,-6.244 -0.384,-8.476 -2.404,-2.196 -6.12,-2.072 -8.376,0.276 z"
         style="fill:#2b1b19"
         inkscape:connector-curvature="0" />
      <path
         id="path3898"
         d="m 276.684,346.576 c -4.4,2.8 -9,5.44 -13.64,8 -2.948,1.512 -4.112,5.132 -2.6,8.08 1.512,2.948 5.132,4.112 8.08,2.6 4.96,-2.56 9.88,-5.4 14.6,-8.4 2.752,-1.848 3.484,-5.572 1.64,-8.324 -1.716,-2.556 -5.084,-3.4 -7.8,-1.956 z"
         style="fill:#2b1b19"
         inkscape:connector-curvature="0" />
    </g>
    <g
       id="g3902" />
    <g
       id="g3904" />
    <g
       id="g3906" />
    <g
       id="g3908" />
    <g
       id="g3910" />
    <g
       id="g3912" />
    <g
       id="g3914" />
    <g
       id="g3916" />
    <g
       id="g3918" />
    <g
       id="g3920" />
    <g
       id="g3922" />
    <g
       id="g3924" />
    <g
       id="g3926" />
    <g
       id="g3928" />
    <g
       id="g3930" />
  </g>
</svg>
